<?xml version="1.0" standalone="no"?><!DOCTYPE svg PUBLIC "-//W3C//DTD SVG 1.1//EN" "http://www.w3.org/Graphics/SVG/1.1/DTD/svg11.dtd"><svg t="1604499449873" class="icon" viewBox="0 0 1024 1024" version="1.1" xmlns="http://www.w3.org/2000/svg" p-id="1691" xmlns:xlink="http://www.w3.org/1999/xlink" width="128" height="128"><defs><style type="text/css"></style></defs><path d="M699.41541432 692.156444c-69.5223 69.624689-154.09582 104.334645-253.61817 104.334645-99.52235 0-184.505427-35.119512-254.846841-105.460927C120.50660032 620.586358 85.38708732 535.603282 85.38708732 436.080932c0-99.52235 35.119512-184.505427 105.460927-254.846841 70.341414-70.239025 155.324491-105.460927 254.846841-105.460927 99.52235 0 184.505427 35.221902 254.846841 105.460927 70.341414 70.341414 105.460927 155.324491 105.460927 254.846841C806.10501232 535.603282 770.47355332 620.995915 699.41541432 692.156444zM673.30615632 208.469631C610.13198932 145.295464 534.26155632 113.657186 445.69485532 113.657186S281.36011032 145.295464 218.18594332 208.469631C154.90938832 271.746187 123.27111032 347.514231 123.27111032 436.080932c0 88.5667 31.638278 164.437134 94.812445 227.611301 63.174167 63.174167 139.0446 94.812445 227.611301 94.812445s164.334745-31.638278 227.611301-94.812445C736.58271232 600.518066 768.11860132 524.647632 768.11860132 436.080932 768.11860132 347.514231 736.58271232 271.746187 673.30615632 208.469631zM919.85946832 436.080932c0 127.986561-44.232156 237.952615-132.798856 329.488604C698.59630032 857.310302 591.08758932 905.43325 464.73925532 910.245544L464.73925532 986.115978l94.812445 0c12.593878 0 18.942011 6.348133 18.942011 18.942011C578.49371132 1017.754256 572.14557832 1024 559.55170032 1024L331.94039932 1024c-12.593878 0-18.942011-6.245744-18.942011-18.942011 0-12.593878 6.348133-18.942011 18.942011-18.942011l94.812445 0L426.75284432 910.245544C368.28858332 908.709705 310.64343532 895.194325 253.71501332 869.90418 241.01874632 863.658436 237.94706932 854.85296 244.19281332 843.794922c4.709905-9.5222 12.593878-12.593878 23.754306-9.5222 55.290195 25.290145 113.754456 37.884022 175.392784 37.884022l2.354953 0 2.354953 0c120.102589 0 222.491838-42.696317 306.962969-127.986561C839.68868632 658.879938 881.97544632 556.183521 881.97544632 436.080932c0-83.754406-22.935192-161.979792-68.703186-234.676159-45.870384-72.696367-107.508712-126.450723-184.914984-161.160678C626.71904732 38.605866 625.08082032 37.786752 623.54498132 37.786752c-1.535839 0-3.174067-0.819114-4.709905-2.354953C607.77703632 29.186055 604.60297032 21.199694 609.31287532 11.677494c6.348133-11.058039 14.232106-14.232106 23.754306-9.5222 1.535839 0 3.583624 0.409557 5.938576 1.228671C641.36071032 4.305468 643.30610632 4.612636 644.84194532 4.612636c83.754406 39.52225 150.512196 98.396068 200.375761 176.621455C894.97888032 259.459477 919.85946832 344.442554 919.85946832 436.080932z" fill="#8a8a8a" p-id="1692"></path></svg>